<?xml version="1.0" encoding="iso-8859-1"?>
<!-- Generator: Adobe Illustrator 19.0.0, SVG Export Plug-In . SVG Version: 6.00 Build 0)  -->
<svg version="1.1" id="Layer_1" xmlns="http://www.w3.org/2000/svg" xmlns:xlink="http://www.w3.org/1999/xlink" x="0px" y="0px"
	 viewBox="0 0 512.001 512.001" style="enable-background:new 0 0 512.001 512.001;" xml:space="preserve">
<g>
	<g>
		<path d="M172.832,330.685l-19.068,68.677H99.896c-6.862,0-12.425,5.563-12.425,12.425c0,6.862,5.563,12.425,12.425,12.425h63.314
			h0.001c0.514,0,1.019-0.041,1.518-0.102c0.128-0.016,0.253-0.039,0.381-0.058c0.416-0.065,0.825-0.148,1.226-0.252
			c0.065-0.017,0.132-0.022,0.196-0.04l77.778-21.595c2.065-0.573,3.946-1.671,5.462-3.186l239.37-239.37
			c16.327-16.327,16.327-42.893,0-59.219l-14.536-14.536c-7.909-7.91-18.424-12.265-29.609-12.265s-21.701,4.355-29.61,12.265
			l-8.971,8.971V27.091C406.417,12.153,394.27,0,379.339,0H125.385c-3.295,0-6.456,1.31-8.786,3.639L14.252,105.987
			c-2.33,2.33-3.639,5.49-3.639,8.786v370.138c0,14.938,12.153,27.091,27.091,27.091h341.636c14.931,0,27.078-12.153,27.078-27.091
			V312.72c0-6.862-5.563-12.425-12.425-12.425c-6.862,0-12.425,5.563-12.425,12.425v172.191c0,1.235-0.999,2.24-2.228,2.24H37.703
			c-1.235,0-2.24-1.005-2.24-2.24V127.199h75.269c14.933,0,27.079-12.148,27.079-27.079V24.85h241.527
			c1.229,0,2.228,1.005,2.228,2.24v91.852c0,0.235,0.022,0.465,0.035,0.696l-81.586,81.586H99.896
			c-6.862,0-12.425,5.563-12.425,12.425s5.563,12.425,12.425,12.425h175.269l-74.218,74.218H99.896
			c-6.862,0-12.425,5.563-12.425,12.425s5.563,12.425,12.425,12.425h76.201l-0.078,0.078
			C174.503,326.738,173.405,328.62,172.832,330.685z M112.961,100.118c0,1.229-1,2.229-2.229,2.229H53.039l59.922-59.922V100.118z
			 M432.96,103.424c3.216-3.214,7.491-4.985,12.038-4.985c4.548,0,8.822,1.771,12.037,4.986l14.536,14.536
			c6.638,6.638,6.638,17.438,0,24.074l-15.518,15.518l-38.611-38.611L432.96,103.424z M399.87,136.514l38.611,38.611L240.988,372.62
			l-38.611-38.611L399.87,136.514z M191.078,357.856l26.062,26.062l-36.08,10.017L191.078,357.856z"/>
	</g>
</g>
<g>
</g>
<g>
</g>
<g>
</g>
<g>
</g>
<g>
</g>
<g>
</g>
<g>
</g>
<g>
</g>
<g>
</g>
<g>
</g>
<g>
</g>
<g>
</g>
<g>
</g>
<g>
</g>
<g>
</g>
</svg>
