<?xml version="1.0" encoding="iso-8859-1"?>
<!-- Generator: Adobe Illustrator 19.0.0, SVG Export Plug-In . SVG Version: 6.00 Build 0)  -->
<svg version="1.1" id="Layer_1" xmlns="http://www.w3.org/2000/svg" xmlns:xlink="http://www.w3.org/1999/xlink" x="0px" y="0px"
	 viewBox="0 0 512.001 512.001" style="enable-background:new 0 0 512.001 512.001;" xml:space="preserve">
<g>
	<g>
		<path d="M430.296,91.534c-38.203-14.127-77.994-23.537-118.461-28.062c0.301-2.365,0.465-4.757,0.465-7.173
			C312.3,25.257,287.044,0,256.001,0c-31.043,0-56.299,25.257-56.299,56.299c0,2.415,0.164,4.808,0.465,7.173
			C159.702,67.997,119.91,77.407,81.715,91.53c-14.8,5.458-24.744,19.679-24.744,35.388v30.027
			c0,20.776,16.901,37.677,37.676,37.677h12.999l21.405,258.65v29.391c0,16.176,13.161,29.338,29.338,29.338h195.223
			c16.177,0,29.338-13.161,29.338-29.338v-29.379l21.405-258.663h12.999c20.775,0,37.676-16.902,37.676-37.677v-30.027
			C455.032,111.209,445.087,96.987,430.296,91.534z M256.001,21.517c19.179,0,34.782,15.603,34.782,34.782
			c0,1.766-0.13,3.509-0.387,5.224l0.022,0.018c-22.878-1.561-45.954-1.561-68.833,0l0.022-0.018
			c-0.257-1.716-0.387-3.46-0.387-5.224C221.219,37.12,236.821,21.517,256.001,21.517z M129.236,194.62h33.144l12.333,247.45
			h-24.999L129.236,194.62z M361.432,482.663c0,4.313-3.508,7.82-7.821,7.82H158.388c-4.312,0-7.821-3.508-7.821-7.821v-19.069
			h210.866V482.663z M183.923,194.62h32.658l4.267,247.45h-24.591L183.923,194.62z M238.102,194.62h35.797l-4.266,247.45h-27.264
			L238.102,194.62z M291.153,442.07l4.266-247.45h32.658l-12.333,247.45H291.153z M362.288,442.07h-24.999l12.332-247.45h33.145
			L362.288,442.07z M384.491,173.103H127.509c-0.265-3.6-1.605-22.745-1.906-26.896h260.793
			C386.095,150.365,384.675,170.596,384.491,173.103z M433.515,156.944L433.515,156.944c0,8.91-7.249,16.16-16.159,16.16h-11.29
			c0.004-0.059,0.009-0.122,0.013-0.181c0.297-4.101,0.594-8.344,0.884-12.517c0.582-8.342,1.185-16.967,1.771-24.071
			c0.246-2.996-0.771-5.96-2.808-8.173c-2.037-2.212-4.907-3.471-7.914-3.471H113.989c-3.007,0-5.876,1.259-7.914,3.471
			c-2.038,2.213-3.055,5.176-2.808,8.173c0.585,7.098,1.188,15.716,1.769,24.052c0.295,4.222,0.594,8.514,0.895,12.661
			c0.001,0.019,0.003,0.039,0.004,0.057h-11.29c-8.91,0-16.159-7.249-16.159-16.16v-30.027c0-6.737,4.288-12.844,10.681-15.203
			c40.33-14.912,82.509-24.355,125.359-28.064c27.521-2.371,55.429-2.373,82.947,0c42.853,3.709,85.032,13.152,125.37,28.069
			c6.384,2.354,10.672,8.461,10.672,15.198V156.944z"/>
	</g>
</g>
<g>
</g>
<g>
</g>
<g>
</g>
<g>
</g>
<g>
</g>
<g>
</g>
<g>
</g>
<g>
</g>
<g>
</g>
<g>
</g>
<g>
</g>
<g>
</g>
<g>
</g>
<g>
</g>
<g>
</g>
</svg>
