<?xml version="1.0" encoding="iso-8859-1"?>
<!-- Generator: Adobe Illustrator 18.1.1, SVG Export Plug-In . SVG Version: 6.00 Build 0)  -->
<svg version="1.1" id="Capa_1" xmlns="http://www.w3.org/2000/svg" xmlns:xlink="http://www.w3.org/1999/xlink" x="0px" y="0px"
	 viewBox="0 0 16.146 16.146" style="enable-background:new 0 0 16.146 16.146;" xml:space="preserve">
<g>
	<path style="fill:#030104;" d="M8.073,0.958C3.622,0.958,0,3.533,0,6.699c0,2.153,1.66,4.095,4.34,5.089
		c0.056,0.535-0.146,1.564-1.778,3.047c-0.069,0.064-0.086,0.166-0.041,0.248c0.036,0.066,0.105,0.105,0.178,0.105
		c0.018,0,0.035-0.002,0.053-0.008c0.153-0.041,3.758-1.035,5.934-2.762c4.188-0.225,7.46-2.729,7.46-5.72
		C16.146,3.533,12.525,0.958,8.073,0.958z M11.927,8.745c-0.011,0.004-0.021,0.004-0.032,0.004c-0.066,0-0.128-0.039-0.154-0.102
		c-0.02-0.047-0.502-1.128-2.304-1.343C9.061,7.26,8.611,7.236,8.066,7.232v1.349c0,0.063-0.034,0.119-0.088,0.148
		c-0.056,0.029-0.122,0.023-0.173-0.01L4.342,6.387c-0.046-0.03-0.074-0.083-0.074-0.139s0.027-0.107,0.074-0.139l3.465-2.332
		c0.051-0.035,0.116-0.038,0.172-0.009c0.055,0.029,0.089,0.086,0.089,0.147v1.254c0.751,0.098,3.994,0.68,3.994,3.412
		C12.062,8.661,12.006,8.731,11.927,8.745z"/>
</g>
<g>
</g>
<g>
</g>
<g>
</g>
<g>
</g>
<g>
</g>
<g>
</g>
<g>
</g>
<g>
</g>
<g>
</g>
<g>
</g>
<g>
</g>
<g>
</g>
<g>
</g>
<g>
</g>
<g>
</g>
</svg>
